<svg version="1.1" xmlns="http://www.w3.org/2000/svg" xmlns:xlink="http://www.w3.org/1999/xlink" width="38px" height="38px" viewBox="0,0,256,256"><g fill="#ffffff" fill-rule="nonzero" stroke="none" stroke-width="1" stroke-linecap="butt" stroke-linejoin="miter" stroke-miterlimit="10" stroke-dasharray="" stroke-dashoffset="0" font-family="none" font-weight="none" font-size="none" text-anchor="none" style="mix-blend-mode: normal"><path d="M115.2,140.8v-25.6h25.6v25.6z" id="shape"></path></g><g fill="none" fill-rule="none" stroke="none" stroke-width="1" stroke-linecap="butt" stroke-linejoin="miter" stroke-miterlimit="10" stroke-dasharray="" stroke-dashoffset="0" font-family="none" font-weight="none" font-size="none" text-anchor="none" style="mix-blend-mode: normal"><g transform="scale(6.73684,6.73684)"><g><path d="M10.3,27.1l-2.5,-16.6l0.6,-1.7l5.2,-1.1h9.7l5.7,1.1l1.2,2.3l-3.1,17.7l-3.7,1.2l-5.6,0.6l-5,-0.6l-2.5,-1.1c0,0 0,-1.8 0,-1.8z" fill="#ffffff" fill-rule="nonzero" stroke="none"></path><path d="M13.4,28.8l-2.3,-0.7l-2.7,-16.4l3.7,0.1z" fill="#e4002b" fill-rule="nonzero" stroke="none"></path><path d="M24.6,28.8l2.3,-0.7l2.7,-16.5l-3.7,0.1z" fill="#e4002b" fill-rule="nonzero" stroke="none"></path><path d="M19,26.8c-5.1,0 -8.1,-1.2 -9.3,-1.6l0.6,3c0.4,0.8 2.7,2.3 8.7,2.3c6,0 8.3,-1.5 8.7,-2.3v-3c-1.7,0.4 -3.6,1.6 -8.7,1.6z" fill="#ffffff" fill-rule="nonzero" stroke="none"></path><path d="M19,31.1c-2.2,0 -4.4,-0.2 -6.1,-0.7c-1.9,-0.5 -3,-1.1 -3.2,-1.9c0,-0.1 0,-0.1 0,-0.2l-2.5,-17.8c0,-0.1 0,-0.2 0,-0.3v0c0,-0.1 0,-0.2 0,-0.3c0.2,-0.7 0.9,-1.2 2.2,-1.7c2.1,-0.7 5.7,-1.1 9.6,-1.1c3.9,0 7.4,0.4 9.6,1.1c1.3,0.4 2,0.9 2.2,1.6v0.1v0.1c0,0.1 0,0.1 0,0.2v0c0,0.1 0,0.2 0,0.3l-2.5,17.9c-0.1,0.8 -1.2,1.5 -3.2,2c-1.7,0.5 -3.9,0.7 -6.1,0.7zM11.2,28.2c0.3,0.4 3.1,1.5 7.8,1.5c2,0 3.9,-0.2 5.5,-0.6c1.6,-0.4 2.2,-0.8 2.3,-0.9l2.5,-17.9v-0.1v0c0,0 -0.2,-0.3 -1.2,-0.6c-2,-0.7 -5.3,-1.1 -9,-1.1c-3.7,0 -7.1,0.4 -9,1c-1,0.3 -1.2,0.6 -1.2,0.6v0v0.1z" fill="#202124" fill-rule="nonzero" stroke="none"></path><path d="M29.3,10.3v-0.1v0c0,0 -0.2,-0.3 -1.2,-0.6c-2,-0.7 -5.3,-1.1 -9,-1.1c-3.7,0 -7.1,0.4 -9,1c-1,0.3 -1.2,0.6 -1.2,0.6v0v0.1" fill="none" fill-rule="nonzero" stroke="#ffffff"></path><path d="M19,13.2c-3,0 -5.8,-0.3 -8,-0.7c-2.6,-0.6 -3.8,-1.3 -3.8,-2.4c0,-1 1.3,-1.8 3.8,-2.4c2.1,-0.5 5,-0.7 8,-0.7c3,0 5.8,0.3 8,0.7c2.6,0.6 3.8,1.3 3.8,2.4c0,1 -1.3,1.8 -3.8,2.4c-2.2,0.5 -5,0.7 -8,0.7zM8.8,10.2c0.1,0.2 0.9,0.7 3,1.1c2,0.4 4.6,0.6 7.3,0.6c2.7,0 5.3,-0.2 7.3,-0.6c2.1,-0.4 2.8,-0.9 3,-1.1c-0.1,-0.2 -0.9,-0.7 -3,-1.1c-2,-0.4 -4.6,-0.6 -7.3,-0.6c-2.7,0 -5.3,0.2 -7.3,0.6c-2.2,0.4 -2.9,0.9 -3,1.1z" fill="#202124" fill-rule="nonzero" stroke="none"></path><path d="M17.9,8.4l3.9,-1.3h0.9l0.9,1.3l-1.2,1.6l-0.6,1.5h-5.1l-0.6,-0.8l0.6,-1.1z" fill="#ffffff" fill-rule="nonzero" stroke="none"></path><path d="M23.3,3c0.3,-0.4 0.8,-0.6 1.3,-0.7v0c0.6,0 1,0.3 1.3,0.7c0.1,0.2 0.2,0.4 0.3,0.6c0.2,0.1 0.4,0.1 0.6,0.3c0.4,0.2 0.7,0.7 0.7,1.2c0,1 -0.7,1.8 -1.8,1.8v0c-0.1,0 -0.1,0 -0.2,0l-1.5,1.8l-1,-0.8l2,-2.5l0.4,0.1v0v0v0h0.1c0.1,0 0.2,0 0.2,0c0.2,0 0.4,-0.2 0.4,-0.4c0,0 0,0 0,-0.1c0,0 0,0 -0.1,-0.1c0,0.1 -0.1,0.1 -0.3,0.1h-0.7v-0.7c0,-0.2 -0.1,-0.4 -0.1,-0.5c-0.1,-0.1 -0.1,-0.1 -0.1,-0.1c-0.1,0 -0.2,0.1 -0.3,0.2c-0.1,0.1 -0.1,0.2 -0.1,0.3c0,0.1 0,0.2 0.1,0.3c0,0.1 0,0.1 0.1,0.1v0l0.4,0.5l-2.5,2.3l-0.9,-1l1.4,-1.5c0,-0.1 -0.1,-0.3 -0.1,-0.4v0v0c-0.1,-0.6 0.1,-1.2 0.4,-1.5z" fill="#202124" fill-rule="evenodd" stroke="none"></path><path d="M15.3,11.3c0.3,-1.5 1.5,-2.7 2.9,-3.4c0.8,-0.4 1.6,-0.8 2.4,-1.3c0.1,-0.1 1.3,-0.8 1.4,-0.7l2.4,2.2l-1.9,4.8l-1.3,-0.3l1.6,-4.1l-1,-0.9c-0.6,0.3 -1.2,0.6 -1.8,1c-1,0.4 -2,0.9 -2.7,1.7c-0.6,0.7 -0.8,1.6 -0.4,2.4h-1.4c-0.2,-0.5 -0.2,-1 -0.2,-1.4z" fill="#202124" fill-rule="nonzero" stroke="none"></path><ellipse cx="18.8" cy="34.2" rx="9.7" ry="1.5" fill-opacity="0.5" fill="#c4c4c4" fill-rule="nonzero" stroke="none"></ellipse></g></g></g></svg>